<svg width="202" height="85" viewBox="0 0 202 85" fill="none" xmlns="http://www.w3.org/2000/svg">
<path d="M47.7905 23.4C52.7105 23.4 56.5505 24.84 59.3105 27.72C62.0705 30.56 63.4505 34.66 63.4505 40.02V66H55.6505V40.32C55.6505 37 54.7705 34.5 53.0105 32.82C51.2905 31.1 49.0305 30.24 46.2305 30.24C43.1105 30.24 40.6105 31.12 38.7305 32.88C36.8905 34.64 35.9705 37.34 35.9705 40.98V66H28.1705V40.32C28.1705 36.96 27.3505 34.44 25.7105 32.76C24.1105 31.08 21.9105 30.24 19.1105 30.24C15.9505 30.24 13.4105 31.14 11.4905 32.94C9.61047 34.7 8.67047 37.38 8.67047 40.98V66H0.870469V24H8.43047V29.52C9.71047 27.56 11.4505 26.06 13.6505 25.02C15.8505 23.94 18.3905 23.4 21.2705 23.4C24.2305 23.4 26.8105 23.96 29.0105 25.08C31.2105 26.2 32.8705 27.78 33.9905 29.82C35.3905 27.78 37.2905 26.2 39.6905 25.08C42.1305 23.96 44.8305 23.4 47.7905 23.4ZM88.027 66.42C84.787 66.42 81.867 65.72 79.267 64.32C76.667 62.92 74.627 60.98 73.147 58.5C71.707 55.98 70.987 53.14 70.987 49.98C70.987 46.82 71.707 44 73.147 41.52C74.627 39.04 76.667 37.1 79.267 35.7C81.867 34.3 84.787 33.6 88.027 33.6C91.307 33.6 94.247 34.3 96.847 35.7C99.447 37.1 101.467 39.04 102.907 41.52C104.387 44 105.127 46.82 105.127 49.98C105.127 53.14 104.387 55.98 102.907 58.5C101.467 60.98 99.447 62.92 96.847 64.32C94.247 65.72 91.307 66.42 88.027 66.42ZM88.027 60C90.787 60 93.067 59.08 94.867 57.24C96.667 55.4 97.567 52.98 97.567 49.98C97.567 46.98 96.667 44.56 94.867 42.72C93.067 40.88 90.787 39.96 88.027 39.96C85.267 39.96 82.987 40.88 81.187 42.72C79.427 44.56 78.547 46.98 78.547 49.98C78.547 52.98 79.427 55.4 81.187 57.24C82.987 59.08 85.267 60 88.027 60ZM160.469 60.06C163.949 60.06 166.849 58.9 169.169 56.58L173.129 61.2C171.729 62.92 169.929 64.22 167.729 65.1C165.529 65.98 163.049 66.42 160.289 66.42C156.769 66.42 153.669 65.72 150.989 64.32C148.309 62.92 146.229 60.98 144.749 58.5C143.309 55.98 142.589 53.14 142.589 49.98C142.589 46.86 143.289 44.06 144.689 41.58C146.129 39.06 148.089 37.1 150.569 35.7C153.089 34.3 155.929 33.6 159.089 33.6C162.089 33.6 164.809 34.26 167.249 35.58C169.729 36.86 171.689 38.72 173.129 41.16C174.569 43.56 175.289 46.38 175.289 49.62L150.749 54.42C151.509 56.26 152.729 57.66 154.409 58.62C156.089 59.58 158.109 60.06 160.469 60.06ZM159.089 39.6C156.329 39.6 154.089 40.5 152.369 42.3C150.689 44.1 149.849 46.52 149.849 49.56V49.62L167.969 46.14C167.449 44.18 166.389 42.6 164.789 41.4C163.229 40.2 161.329 39.6 159.089 39.6ZM189.634 38.64C191.794 35.28 195.594 33.6 201.034 33.6V40.74C200.394 40.62 199.814 40.56 199.294 40.56C196.374 40.56 194.094 41.42 192.454 43.14C190.814 44.82 189.994 47.26 189.994 50.46V66H182.494V33.96H189.634V38.64Z" fill="#47B051"/>
<path d="M141.42 33.96L127.68 66H119.94L106.2 33.96H114L123.96 57.72L134.22 33.96H141.42Z" fill="#AB2B2B"/>
<path d="M105.924 32.04L119.664 -1.86527e-06L127.404 -1.18862e-06L141.144 32.04L133.344 32.04L123.384 8.28L113.124 32.04L105.924 32.04Z" fill="#47B051"/>
<path d="M161.749 73.272C160.669 73.272 159.853 73.512 159.301 73.992C158.749 74.472 158.473 75.18 158.473 76.116V77.196H163.963V79.176H158.473V84H156.133V76.116C156.133 74.592 156.619 73.398 157.591 72.534C158.575 71.658 159.925 71.22 161.641 71.22C162.361 71.22 163.033 71.298 163.657 71.454C164.281 71.61 164.827 71.838 165.295 72.138L164.557 74.046C163.813 73.53 162.877 73.272 161.749 73.272ZM168.802 75.792C169.45 74.784 170.59 74.28 172.222 74.28V76.422C172.03 76.386 171.856 76.368 171.7 76.368C170.824 76.368 170.14 76.626 169.648 77.142C169.156 77.646 168.91 78.378 168.91 79.338V84H166.66V74.388H168.802V75.792ZM178.362 84.126C177.39 84.126 176.514 83.916 175.734 83.496C174.954 83.076 174.342 82.494 173.898 81.75C173.466 80.994 173.25 80.142 173.25 79.194C173.25 78.246 173.466 77.4 173.898 76.656C174.342 75.912 174.954 75.33 175.734 74.91C176.514 74.49 177.39 74.28 178.362 74.28C179.346 74.28 180.228 74.49 181.008 74.91C181.788 75.33 182.394 75.912 182.826 76.656C183.27 77.4 183.492 78.246 183.492 79.194C183.492 80.142 183.27 80.994 182.826 81.75C182.394 82.494 181.788 83.076 181.008 83.496C180.228 83.916 179.346 84.126 178.362 84.126ZM178.362 82.2C179.19 82.2 179.874 81.924 180.414 81.372C180.954 80.82 181.224 80.094 181.224 79.194C181.224 78.294 180.954 77.568 180.414 77.016C179.874 76.464 179.19 76.188 178.362 76.188C177.534 76.188 176.85 76.464 176.31 77.016C175.782 77.568 175.518 78.294 175.518 79.194C175.518 80.094 175.782 80.82 176.31 81.372C176.85 81.924 177.534 82.2 178.362 82.2ZM191.044 83.478C190.78 83.694 190.456 83.856 190.072 83.964C189.7 84.072 189.304 84.126 188.884 84.126C187.828 84.126 187.012 83.85 186.436 83.298C185.86 82.746 185.572 81.942 185.572 80.886V72.264H187.822V74.46H190.396V76.26H187.822V80.832C187.822 81.3 187.936 81.66 188.164 81.912C188.404 82.152 188.734 82.272 189.154 82.272C189.658 82.272 190.078 82.14 190.414 81.876L191.044 83.478ZM201.983 74.388V84H199.841V82.758C199.469 83.214 199.007 83.556 198.455 83.784C197.915 84.012 197.315 84.126 196.655 84.126C195.719 84.126 194.879 83.922 194.135 83.514C193.403 83.106 192.827 82.53 192.407 81.786C191.999 81.042 191.795 80.178 191.795 79.194C191.795 78.21 191.999 77.352 192.407 76.62C192.827 75.876 193.403 75.3 194.135 74.892C194.879 74.484 195.719 74.28 196.655 74.28C197.279 74.28 197.849 74.388 198.365 74.604C198.893 74.82 199.349 75.138 199.733 75.558V74.388H201.983ZM196.907 82.2C197.735 82.2 198.419 81.924 198.959 81.372C199.499 80.82 199.769 80.094 199.769 79.194C199.769 78.294 199.499 77.568 198.959 77.016C198.419 76.464 197.735 76.188 196.907 76.188C196.079 76.188 195.395 76.464 194.855 77.016C194.327 77.568 194.063 78.294 194.063 79.194C194.063 80.094 194.327 80.82 194.855 81.372C195.395 81.924 196.079 82.2 196.907 82.2Z" fill="white"/>
<circle cx="124.5" cy="34.5" r="5.5" fill="#944747"/>
</svg>
