<svg width="64" height="43" viewBox="0 0 64 43" fill="none" xmlns="http://www.w3.org/2000/svg">
<path d="M47.8217 0.399998C52.7417 0.399998 56.5817 1.84 59.3417 4.72C62.1017 7.56 63.4817 11.66 63.4817 17.02V43H55.6817V17.32C55.6817 14 54.8017 11.5 53.0417 9.82C51.3217 8.1 49.0617 7.24 46.2617 7.24C43.1417 7.24 40.6417 8.12 38.7617 9.88C36.9217 11.64 36.0017 14.34 36.0017 17.98V43H28.2017V17.32C28.2017 13.96 27.3817 11.44 25.7417 9.76C24.1417 8.08 21.9417 7.24 19.1417 7.24C15.9817 7.24 13.4417 8.14 11.5217 9.94C9.64172 11.7 8.70172 14.38 8.70172 17.98V43H0.901719V0.999997H8.46172V6.52C9.74172 4.56 11.4817 3.06 13.6817 2.02C15.8817 0.939998 18.4217 0.399998 21.3017 0.399998C24.2617 0.399998 26.8417 0.959998 29.0417 2.08C31.2417 3.2 32.9017 4.78 34.0217 6.82C35.4217 4.78 37.3217 3.2 39.7217 2.08C42.1617 0.959998 44.8617 0.399998 47.8217 0.399998Z" fill="#47B051"/>
</svg>
