<svg class="svg-icon" style="width: 1em; height: 1em;vertical-align: middle;fill: currentColor;overflow: hidden;" viewBox="0 0 1024 1024" version="1.1" xmlns="http://www.w3.org/2000/svg"><path d="M768.8 582.3c24.2 0 58.5-50.4 66.6-68.6 8.1-16.1 28.2-92.8-10.1-92.8H718.4v-78.6h50.4c24.2 0 58.5-50.4 66.6-68.6 8.1-16.1 28.2-92.8-10.1-92.8H718.4v-28.2h30.3v-40.3h-478v40.3H301V183H198c-38.3 0-18.2 74.6-10.1 92.8 8.1 18.2 42.3 68.6 66.6 68.6h46.4V423H198c-38.3 0-18.2 76.6-10.1 92.8 8.1 16.1 40.3 66.5 64.5 66.5h46.4V661H198c-38.3 0-18.2 76.6-10.1 92.8 8.1 18.2 42.3 68.6 66.6 68.6h46.4v60.5h72.6V911h270.2v-28.2h72.6v-60.5h50.4c24.2 0 58.5-50.4 66.6-68.6 8.1-16.1 28.2-92.8-10.1-92.8H716.4v-78.7h52.4zM510.6 836.4c-50.4 0-92.8-42.3-92.8-92.8 0-52.4 40.3-92.8 92.8-92.8 50.4 0 92.8 42.4 92.8 92.8 0 50.5-42.3 92.8-92.8 92.8z m0-219.8c-50.4 0-92.8-42.3-92.8-92.8 0-52.4 40.3-92.8 92.8-92.8 50.4 0 92.8 42.3 92.8 92.8 0 50.4-42.3 92.8-92.8 92.8z m0-219.8c-50.4 0-92.8-42.4-92.8-92.8 0-52.4 40.3-92.8 92.8-92.8 50.4 0 92.8 42.4 92.8 92.8s-42.3 92.8-92.8 92.8z m0 0"  /></svg>